<?xml version="1.0" encoding="UTF-8" standalone="no"?>
<!DOCTYPE svg PUBLIC "-//W3C//DTD SVG 1.1//EN"
 "http://www.w3.org/Graphics/SVG/1.1/DTD/svg11.dtd">
<!-- Generated by graphviz version 2.40.1 (20161225.0304)
 -->
<!-- Title: states Pages: 1 -->
<svg width="552pt" height="172pt"
 viewBox="0.00 0.00 552.14 171.58" xmlns="http://www.w3.org/2000/svg" xmlns:xlink="http://www.w3.org/1999/xlink">
<g id="graph0" class="graph" transform="scale(1 1) rotate(0) translate(4 167.5807)">
<title>states</title>
<polygon fill="#ffffff" stroke="transparent" points="-4,4 -4,-167.5807 548.1392,-167.5807 548.1392,4 -4,4"/>
<!-- idle -->
<g id="node1" class="node">
<title>idle</title>
<ellipse fill="none" stroke="#000000" cx="58.6899" cy="-48.7904" rx="58.8803" ry="48.5816"/>
<text text-anchor="middle" x="58.6899" y="-68.0904" font-family="Times,serif" font-size="14.00" fill="#000000">idle</text>
<text text-anchor="middle" x="58.6899" y="-37.0904" font-family="Times,serif" font-size="14.00" fill="#000000">valid_out=0</text>
<text text-anchor="middle" x="58.6899" y="-22.0904" font-family="Times,serif" font-size="14.00" fill="#000000">b_select=0</text>
</g>
<!-- idle&#45;&gt;idle -->
<g id="edge1" class="edge">
<title>idle&#45;&gt;idle</title>
<path fill="none" stroke="#000000" d="M39.0526,-94.9893C40.3433,-106.7509 46.8891,-115.5807 58.6899,-115.5807 66.8029,-115.5807 72.4321,-111.4073 75.5775,-104.9769"/>
<polygon fill="#000000" stroke="#000000" points="79.0472,-105.5596 78.3271,-94.9893 72.2983,-103.7016 79.0472,-105.5596"/>
<text text-anchor="middle" x="58.6899" y="-119.3807" font-family="Times,serif" font-size="14.00" fill="#000000">valid_in=0</text>
</g>
<!-- square -->
<g id="node2" class="node">
<title>square</title>
<ellipse fill="none" stroke="#000000" cx="272.0696" cy="-114.7904" rx="58.8803" ry="48.5816"/>
<text text-anchor="middle" x="272.0696" y="-134.0904" font-family="Times,serif" font-size="14.00" fill="#000000">square</text>
<text text-anchor="middle" x="272.0696" y="-103.0904" font-family="Times,serif" font-size="14.00" fill="#000000">valid_out=0</text>
<text text-anchor="middle" x="272.0696" y="-88.0904" font-family="Times,serif" font-size="14.00" fill="#000000">b_select=1</text>
</g>
<!-- idle&#45;&gt;square -->
<g id="edge2" class="edge">
<title>idle&#45;&gt;square</title>
<path fill="none" stroke="#000000" d="M113.9179,-65.8728C142.3192,-74.6576 177.1183,-85.4212 206.8359,-94.6131"/>
<polygon fill="#000000" stroke="#000000" points="206.1149,-98.0536 216.7026,-97.6649 208.1834,-91.3662 206.1149,-98.0536"/>
<text text-anchor="middle" x="165.3797" y="-93.5904" font-family="Times,serif" font-size="14.00" fill="#000000">valid_in=1</text>
</g>
<!-- cube -->
<g id="node3" class="node">
<title>cube</title>
<ellipse fill="none" stroke="#000000" cx="485.4493" cy="-76.7904" rx="58.8803" ry="48.5816"/>
<text text-anchor="middle" x="485.4493" y="-96.0904" font-family="Times,serif" font-size="14.00" fill="#000000">cube</text>
<text text-anchor="middle" x="485.4493" y="-65.0904" font-family="Times,serif" font-size="14.00" fill="#000000">valid_out=1</text>
<text text-anchor="middle" x="485.4493" y="-50.0904" font-family="Times,serif" font-size="14.00" fill="#000000">b_select=0</text>
</g>
<!-- square&#45;&gt;cube -->
<g id="edge3" class="edge">
<title>square&#45;&gt;cube</title>
<path fill="none" stroke="#000000" d="M330.0351,-106.066C354.3908,-102.2433 382.9956,-97.5487 408.7595,-92.7904 411.9694,-92.1975 415.2515,-91.5752 418.564,-90.9342"/>
<polygon fill="#000000" stroke="#000000" points="419.4168,-94.3335 428.5511,-88.9656 418.063,-87.4657 419.4168,-94.3335"/>
<text text-anchor="middle" x="378.7595" y="-107.5904" font-family="Times,serif" font-size="14.00" fill="#000000">(always)</text>
</g>
<!-- cube&#45;&gt;idle -->
<g id="edge5" class="edge">
<title>cube&#45;&gt;idle</title>
<path fill="none" stroke="#000000" d="M429.7507,-61.0344C400.5402,-53.5773 364.0073,-45.5047 330.7595,-41.7904 261.687,-34.0738 182.1667,-37.536 127.0094,-41.8782"/>
<polygon fill="#000000" stroke="#000000" points="126.6832,-38.3931 117.0018,-42.6967 127.2539,-45.3698 126.6832,-38.3931"/>
<text text-anchor="middle" x="272.0696" y="-45.5904" font-family="Times,serif" font-size="14.00" fill="#000000">valid_in=0</text>
</g>
<!-- cube&#45;&gt;square -->
<g id="edge4" class="edge">
<title>cube&#45;&gt;square</title>
<path fill="none" stroke="#000000" d="M427.4967,-68.7844C402.8859,-67.1066 374.0869,-67.445 348.7595,-73.7904 341.8123,-75.5309 334.8065,-78.0341 328.0023,-80.9577"/>
<polygon fill="#000000" stroke="#000000" points="326.485,-77.8032 318.8732,-85.1729 329.4194,-84.1584 326.485,-77.8032"/>
<text text-anchor="middle" x="378.7595" y="-77.5904" font-family="Times,serif" font-size="14.00" fill="#000000">valid_in=1</text>
</g>
</g>
</svg>
