<svg xmlns="http://www.w3.org/2000/svg" xmlns:xlink="http://www.w3.org/1999/xlink" xmlns:s="https://github.com/nturley/netlistsvg" width="801.5" height="588.5">
  <style>svg {
    stroke:#000;
    fill:none;
  }
  text {
    fill:#000;
    stroke:none;
    font-size:10px;
    font-weight: bold;
    font-family: "Courier New", monospace;
  }
  line {
      stroke-linecap: round;
  }
  .nodelabel {
    text-anchor: middle;
  }
  .inputPortLabel {
    text-anchor: end;
  }
  .splitjoinBody {
    fill:#000;
  }</style>
  <g s:type="add" transform="translate(483.6666666666667,112.5)" s:width="25" s:height="25" id="cell_\11">
    <s:alias val="$add"/>
    <circle r="12.5" cx="12.5" cy="12.5" class="cell_\11"/>
    <line x1="7.5" x2="17.5" y1="12.5" y2="12.5" class="cell_\11"/>
    <line x1="12.5" x2="12.5" y1="7.5" y2="17.5" class="cell_\11"/>
    <g s:x="2" s:y="5" s:pid="A"/>
    <g s:x="2" s:y="20" s:pid="B"/>
    <g s:x="26" s:y="12.5" s:pid="Y"/>
  </g>
  <g s:type="reduce_xor" transform="translate(143,490)" s:width="33" s:height="25" id="cell_\12">
    <s:alias val="$xor"/>
    <s:alias val="$reduce_xor"/>
    <s:alias val="$_XOR_"/>
    <path d="M3,0 A30 25 0 0 1 3,25 A30 25 0 0 0 33,12.5 A30 25 0 0 0 3,0 Z" class="cell_\12"/>
    <path d="M0,0 A30 25 0 0 1 0,25" class="cell_\12"/>
    <g s:x="2" s:y="5" s:pid="A"/>
    <g s:x="2" s:y="20" s:pid="B"/>
    <g s:x="33" s:y="12.5" s:pid="Y"/>
  </g>
  <g s:type="mux" transform="translate(549,358.5)" s:width="20" s:height="40" id="cell_\15">
    <s:alias val="$pmux"/>
    <s:alias val="$mux"/>
    <s:alias val="$_MUX_"/>
    <path d="M0,0 L20,10 L20,30 L0,40 Z" class="cell_\15"/>
    <text x="5" y="32" class="nodelabel cell_\15" s:attribute="">1</text>
    <text x="5" y="13" class="nodelabel cell_\15" s:attribute="">0</text>
    <g s:x="0" s:y="10" s:pid="A"/>
    <g s:x="0" s:y="30" s:pid="B"/>
    <g s:x="10" s:y="5" s:pid="S"/>
    <g s:x="20" s:y="20" s:pid="Y"/>
  </g>
  <g s:type="mux" transform="translate(549,471.5)" s:width="20" s:height="40" id="cell_\17">
    <s:alias val="$pmux"/>
    <s:alias val="$mux"/>
    <s:alias val="$_MUX_"/>
    <path d="M0,0 L20,10 L20,30 L0,40 Z" class="cell_\17"/>
    <text x="5" y="32" class="nodelabel cell_\17" s:attribute="">1</text>
    <text x="5" y="13" class="nodelabel cell_\17" s:attribute="">0</text>
    <g s:x="0" s:y="10" s:pid="A"/>
    <g s:x="0" s:y="30" s:pid="B"/>
    <g s:x="10" s:y="5" s:pid="S"/>
    <g s:x="20" s:y="20" s:pid="Y"/>
  </g>
  <g s:type="mux-bus" transform="translate(605,115)" s:width="24" s:height="40" id="cell_\19">
    <s:alias val="$pmux-bus"/>
    <s:alias val="$mux-bus"/>
    <s:alias val="$_MUX_-bus"/>
    <path d="M0,0 L20,10 L20,30 L0,40 Z" class="cell_\19"/>
    <path d="M4,2 L4,0 L22,9 L22,31 L4,40 L4,38" class="cell_\19"/>
    <path d="M8,2 L8,0 L24,8 L24,32 L8,40 L8,38" class="cell_\19"/>
    <text x="5" y="32" class="nodelabel cell_\19" s:attribute="">1</text>
    <text x="5" y="13" class="nodelabel cell_\19" s:attribute="">0</text>
    <g s:x="-1" s:y="10" s:pid="A"/>
    <g s:x="-1" s:y="30" s:pid="B"/>
    <g s:x="12" s:y="5" s:pid="S"/>
    <g s:x="24.5" s:y="20" s:pid="Y"/>
  </g>
  <g s:type="mux" transform="translate(219.33333333333334,492.5)" s:width="20" s:height="40" id="cell_\21">
    <s:alias val="$pmux"/>
    <s:alias val="$mux"/>
    <s:alias val="$_MUX_"/>
    <path d="M0,0 L20,10 L20,30 L0,40 Z" class="cell_\21"/>
    <text x="5" y="32" class="nodelabel cell_\21" s:attribute="">1</text>
    <text x="5" y="13" class="nodelabel cell_\21" s:attribute="">0</text>
    <g s:x="0" s:y="10" s:pid="A"/>
    <g s:x="0" s:y="30" s:pid="B"/>
    <g s:x="10" s:y="5" s:pid="S"/>
    <g s:x="20" s:y="20" s:pid="Y"/>
  </g>
  <g s:type="mux" transform="translate(606.1666666666666,236.5)" s:width="20" s:height="40" id="cell_\23">
    <s:alias val="$pmux"/>
    <s:alias val="$mux"/>
    <s:alias val="$_MUX_"/>
    <path d="M0,0 L20,10 L20,30 L0,40 Z" class="cell_\23"/>
    <text x="5" y="32" class="nodelabel cell_\23" s:attribute="">1</text>
    <text x="5" y="13" class="nodelabel cell_\23" s:attribute="">0</text>
    <g s:x="0" s:y="10" s:pid="A"/>
    <g s:x="0" s:y="30" s:pid="B"/>
    <g s:x="10" s:y="5" s:pid="S"/>
    <g s:x="20" s:y="20" s:pid="Y"/>
  </g>
  <g s:type="mux" transform="translate(606.1666666666666,481.5)" s:width="20" s:height="40" id="cell_\25">
    <s:alias val="$pmux"/>
    <s:alias val="$mux"/>
    <s:alias val="$_MUX_"/>
    <path d="M0,0 L20,10 L20,30 L0,40 Z" class="cell_\25"/>
    <text x="5" y="32" class="nodelabel cell_\25" s:attribute="">1</text>
    <text x="5" y="13" class="nodelabel cell_\25" s:attribute="">0</text>
    <g s:x="0" s:y="10" s:pid="A"/>
    <g s:x="0" s:y="30" s:pid="B"/>
    <g s:x="10" s:y="5" s:pid="S"/>
    <g s:x="20" s:y="20" s:pid="Y"/>
  </g>
  <g s:type="mux-bus" transform="translate(732.5,125)" s:width="24" s:height="40" id="cell_\27">
    <s:alias val="$pmux-bus"/>
    <s:alias val="$mux-bus"/>
    <s:alias val="$_MUX_-bus"/>
    <path d="M0,0 L20,10 L20,30 L0,40 Z" class="cell_\27"/>
    <path d="M4,2 L4,0 L22,9 L22,31 L4,40 L4,38" class="cell_\27"/>
    <path d="M8,2 L8,0 L24,8 L24,32 L8,40 L8,38" class="cell_\27"/>
    <text x="5" y="32" class="nodelabel cell_\27" s:attribute="">1</text>
    <text x="5" y="13" class="nodelabel cell_\27" s:attribute="">0</text>
    <g s:x="-1" s:y="10" s:pid="A"/>
    <g s:x="-1" s:y="30" s:pid="B"/>
    <g s:x="12" s:y="5" s:pid="S"/>
    <g s:x="24.5" s:y="20" s:pid="Y"/>
  </g>
  <g s:type="mux" transform="translate(284.3333333333333,502.5)" s:width="20" s:height="40" id="cell_\29">
    <s:alias val="$pmux"/>
    <s:alias val="$mux"/>
    <s:alias val="$_MUX_"/>
    <path d="M0,0 L20,10 L20,30 L0,40 Z" class="cell_\29"/>
    <text x="5" y="32" class="nodelabel cell_\29" s:attribute="">1</text>
    <text x="5" y="13" class="nodelabel cell_\29" s:attribute="">0</text>
    <g s:x="0" s:y="10" s:pid="A"/>
    <g s:x="0" s:y="30" s:pid="B"/>
    <g s:x="10" s:y="5" s:pid="S"/>
    <g s:x="20" s:y="20" s:pid="Y"/>
  </g>
  <g s:type="dff" transform="translate(665.5,236.5)" s:width="30" s:height="40" id="cell_\35">
    <s:alias val="$dff"/>
    <s:alias val="$_DFF_"/>
    <s:alias val="$_DFF_P_"/>
    <s:alias val="dff-bus"/>
    <s:alias val="$dff-bus"/>
    <s:alias val="$_DFF_-bus"/>
    <s:alias val="$_DFF_P_-bus"/>
    <rect width="30" height="40" x="0" y="0" class="cell_\35"/>
    <path d="M10,0 L15,5 L20,0" class="cell_\35"/>
    <g s:x="31" s:y="20" s:pid="Q"/>
    <g s:x="15" s:y="0" s:pid="CLK"/>
    <g s:x="-1" s:y="30" s:pid="C"/>
    <g s:x="-1" s:y="20" s:pid="D"/>
  </g>
  <g s:type="dff" transform="translate(665.5,481.5)" s:width="30" s:height="40" id="cell_\36">
    <s:alias val="$dff"/>
    <s:alias val="$_DFF_"/>
    <s:alias val="$_DFF_P_"/>
    <s:alias val="dff-bus"/>
    <s:alias val="$dff-bus"/>
    <s:alias val="$_DFF_-bus"/>
    <s:alias val="$_DFF_P_-bus"/>
    <rect width="30" height="40" x="0" y="0" class="cell_\36"/>
    <path d="M10,0 L15,5 L20,0" class="cell_\36"/>
    <g s:x="31" s:y="20" s:pid="Q"/>
    <g s:x="15" s:y="0" s:pid="CLK"/>
    <g s:x="-1" s:y="30" s:pid="C"/>
    <g s:x="-1" s:y="20" s:pid="D"/>
  </g>
  <g s:type="dff" transform="translate(347,97.5)" s:width="30" s:height="40" id="cell_\37">
    <s:alias val="$dff"/>
    <s:alias val="$_DFF_"/>
    <s:alias val="$_DFF_P_"/>
    <s:alias val="dff-bus"/>
    <s:alias val="$dff-bus"/>
    <s:alias val="$_DFF_-bus"/>
    <s:alias val="$_DFF_P_-bus"/>
    <rect width="30" height="40" x="0" y="0" class="cell_\37"/>
    <path d="M10,0 L15,5 L20,0" class="cell_\37"/>
    <g s:x="31" s:y="20" s:pid="Q"/>
    <g s:x="15" s:y="0" s:pid="CLK"/>
    <g s:x="-1" s:y="30" s:pid="C"/>
    <g s:x="-1" s:y="20" s:pid="D"/>
  </g>
  <g s:type="dff" transform="translate(347,502.5)" s:width="30" s:height="40" id="cell_\38">
    <s:alias val="$dff"/>
    <s:alias val="$_DFF_"/>
    <s:alias val="$_DFF_P_"/>
    <s:alias val="dff-bus"/>
    <s:alias val="$dff-bus"/>
    <s:alias val="$_DFF_-bus"/>
    <s:alias val="$_DFF_P_-bus"/>
    <rect width="30" height="40" x="0" y="0" class="cell_\38"/>
    <path d="M10,0 L15,5 L20,0" class="cell_\38"/>
    <g s:x="31" s:y="20" s:pid="Q"/>
    <g s:x="15" s:y="0" s:pid="CLK"/>
    <g s:x="-1" s:y="30" s:pid="C"/>
    <g s:x="-1" s:y="20" s:pid="D"/>
  </g>
  <g s:type="eq" transform="translate(148,22)" s:width="25" s:height="25" id="cell_\6">
    <s:alias val="$eq"/>
    <circle r="12.5" cx="12.5" cy="12.5" class="cell_\6"/>
    <line x1="7.5" x2="17.5" y1="10" y2="10" class="cell_\6"/>
    <line x1="7.5" x2="17.5" y1="15" y2="15" class="cell_\6"/>
    <g s:x="2" s:y="5" s:pid="A"/>
    <g s:x="2" s:y="20" s:pid="B"/>
    <g s:x="25" s:y="12.5" s:pid="Y"/>
  </g>
  <g s:type="reduce_xor" transform="translate(413,517.5)" s:width="33" s:height="25" id="cell_\7">
    <s:alias val="$xor"/>
    <s:alias val="$reduce_xor"/>
    <s:alias val="$_XOR_"/>
    <path d="M3,0 A30 25 0 0 1 3,25 A30 25 0 0 0 33,12.5 A30 25 0 0 0 3,0 Z" class="cell_\7"/>
    <path d="M0,0 A30 25 0 0 1 0,25" class="cell_\7"/>
    <g s:x="2" s:y="5" s:pid="A"/>
    <g s:x="2" s:y="20" s:pid="B"/>
    <g s:x="33" s:y="12.5" s:pid="Y"/>
  </g>
  <g s:type="reduce_xor" transform="translate(481,525)" s:width="33" s:height="25" id="cell_\9">
    <s:alias val="$xor"/>
    <s:alias val="$reduce_xor"/>
    <s:alias val="$_XOR_"/>
    <path d="M3,0 A30 25 0 0 1 3,25 A30 25 0 0 0 33,12.5 A30 25 0 0 0 3,0 Z" class="cell_\9"/>
    <path d="M0,0 A30 25 0 0 1 0,25" class="cell_\9"/>
    <g s:x="2" s:y="5" s:pid="A"/>
    <g s:x="2" s:y="20" s:pid="B"/>
    <g s:x="33" s:y="12.5" s:pid="Y"/>
  </g>
  <g s:type="inputExt" transform="translate(281,287.5)" s:width="30" s:height="20" id="cell_clk">
    <text x="15" y="-4" class="nodelabel cell_clk" s:attribute="ref">clk</text>
    <s:alias val="$_inputExt_"/>
    <path d="M0,0 L0,20 L15,20 L30,10 L15,0 Z" class="cell_clk"/>
    <g s:x="30" s:y="10" s:pid="Y"/>
  </g>
  <g s:type="inputExt" transform="translate(216,338.5)" s:width="30" s:height="20" id="cell_reset">
    <text x="15" y="-4" class="nodelabel cell_reset" s:attribute="ref">reset</text>
    <s:alias val="$_inputExt_"/>
    <path d="M0,0 L0,20 L15,20 L30,10 L15,0 Z" class="cell_reset"/>
    <g s:x="30" s:y="10" s:pid="Y"/>
  </g>
  <g s:type="inputExt" transform="translate(78,500)" s:width="30" s:height="20" id="cell_data">
    <text x="15" y="-4" class="nodelabel cell_data" s:attribute="ref">data</text>
    <s:alias val="$_inputExt_"/>
    <path d="M0,0 L0,20 L15,20 L30,10 L15,0 Z" class="cell_data"/>
    <g s:x="30" s:y="10" s:pid="Y"/>
  </g>
  <g s:type="outputExt" transform="translate(731.5,246.5)" s:width="30" s:height="20" id="cell_complete">
    <text x="15" y="-4" class="nodelabel cell_complete" s:attribute="ref">complete</text>
    <s:alias val="$_outputExt_"/>
    <path d="M30,0 L30,20 L15,20 L0,10 L15,0 Z" class="cell_complete"/>
    <g s:x="0" s:y="10" s:pid="A"/>
  </g>
  <g s:type="outputExt" transform="translate(732.5,491.5)" s:width="30" s:height="20" id="cell_valid">
    <text x="15" y="-4" class="nodelabel cell_valid" s:attribute="ref">valid</text>
    <s:alias val="$_outputExt_"/>
    <path d="M30,0 L30,20 L15,20 L0,10 L15,0 Z" class="cell_valid"/>
    <g s:x="0" s:y="10" s:pid="A"/>
  </g>
  <g s:type="constant" transform="translate(347,172.5)" s:width="30" s:height="20" id="cell_001">
    <text x="15" y="12" class="nodelabel cell_001" s:attribute="ref">001</text>
    <s:alias val="$_constant_"/>
    <rect width="30" height="20" class="cell_001"/>
    <g s:x="31" s:y="10" s:pid="Y"/>
  </g>
  <g s:type="constant" transform="translate(145,256.5)" s:width="30" s:height="20" id="cell_0">
    <text x="15" y="12" class="nodelabel cell_0" s:attribute="ref">0</text>
    <s:alias val="$_constant_"/>
    <rect width="30" height="20" class="cell_0"/>
    <g s:x="31" s:y="10" s:pid="Y"/>
  </g>
  <g s:type="constant" transform="translate(415,430.5)" s:width="30" s:height="20" id="cell_1">
    <text x="15" y="12" class="nodelabel cell_1" s:attribute="ref">1</text>
    <s:alias val="$_constant_"/>
    <rect width="30" height="20" class="cell_1"/>
    <g s:x="31" s:y="10" s:pid="Y"/>
  </g>
  <g s:type="constant" transform="translate(483,172.5)" s:width="30" s:height="20" id="cell_000">
    <text x="15" y="12" class="nodelabel cell_000" s:attribute="ref">000</text>
    <s:alias val="$_constant_"/>
    <rect width="30" height="20" class="cell_000"/>
    <g s:x="31" s:y="10" s:pid="Y"/>
  </g>
  <g s:type="constant" transform="translate(12,32)" s:width="30" s:height="20" id="cell_111">
    <text x="15" y="12" class="nodelabel cell_111" s:attribute="ref">111</text>
    <s:alias val="$_constant_"/>
    <rect width="30" height="20" class="cell_111"/>
    <g s:x="31" s:y="10" s:pid="Y"/>
  </g>
  <line x1="378" x2="485.6666666666667" y1="117.5" y2="117.5" class="net_7,8,9 width_3" style="stroke-width: 2"/>
  <line x1="378" x2="388" y1="117.5" y2="117.5" class="net_7,8,9 width_3" style="stroke-width: 2"/>
  <line x1="388" x2="388" y1="117.5" y2="77.5" class="net_7,8,9 width_3" style="stroke-width: 2"/>
  <line x1="388" x2="206" y1="77.5" y2="77.5" class="net_7,8,9 width_3" style="stroke-width: 2"/>
  <line x1="206" x2="206" y1="77.5" y2="12" class="net_7,8,9 width_3" style="stroke-width: 2"/>
  <line x1="206" x2="128" y1="12" y2="12" class="net_7,8,9 width_3" style="stroke-width: 2"/>
  <line x1="128" x2="128" y1="12" y2="27" class="net_7,8,9 width_3" style="stroke-width: 2"/>
  <circle cx="388" cy="117.5" r="3" style="fill:#000" class="net_7,8,9 width_3"/>
  <line x1="128" x2="150" y1="27" y2="27" class="net_7,8,9 width_3" style="stroke-width: 2"/>
  <line x1="378" x2="456" y1="182.5" y2="182.5" class="net_30,31,32 width_3" style="stroke-width: 2"/>
  <line x1="456" x2="456" y1="182.5" y2="132.5" class="net_30,31,32 width_3" style="stroke-width: 2"/>
  <line x1="456" x2="485.6666666666667" y1="132.5" y2="132.5" class="net_30,31,32 width_3" style="stroke-width: 2"/>
  <line x1="378" x2="388" y1="522.5" y2="522.5" class="net_13 width_1" style="stroke-width: 1"/>
  <line x1="388" x2="388" y1="522.5" y2="553.5" class="net_13 width_1" style="stroke-width: 1"/>
  <line x1="388" x2="128" y1="553.5" y2="553.5" class="net_13 width_1" style="stroke-width: 1"/>
  <line x1="128" x2="128" y1="553.5" y2="495" class="net_13 width_1" style="stroke-width: 1"/>
  <circle cx="388" cy="522.5" r="2" style="fill:#000" class="net_13 width_1"/>
  <line x1="128" x2="145" y1="495" y2="495" class="net_13 width_1" style="stroke-width: 1"/>
  <line x1="378" x2="415" y1="522.5" y2="522.5" class="net_13 width_1" style="stroke-width: 1"/>
  <line x1="108" x2="145" y1="510" y2="510" class="net_4 width_1" style="stroke-width: 1"/>
  <line x1="108" x2="118" y1="510" y2="510" class="net_4 width_1" style="stroke-width: 1"/>
  <line x1="118" x2="118" y1="510" y2="564.5" class="net_4 width_1" style="stroke-width: 1"/>
  <line x1="118" x2="398" y1="564.5" y2="564.5" class="net_4 width_1" style="stroke-width: 1"/>
  <line x1="398" x2="398" y1="564.5" y2="537.5" class="net_4 width_1" style="stroke-width: 1"/>
  <circle cx="118" cy="510" r="2" style="fill:#000" class="net_4 width_1"/>
  <line x1="398" x2="415" y1="537.5" y2="537.5" class="net_4 width_1" style="stroke-width: 1"/>
  <line x1="176" x2="186" y1="266.5" y2="266.5" class="net_33 width_1" style="stroke-width: 1"/>
  <line x1="186" x2="186" y1="266.5" y2="368.5" class="net_33 width_1" style="stroke-width: 1"/>
  <circle cx="186" cy="266.5" r="2" style="fill:#000" class="net_33 width_1"/>
  <circle cx="186" cy="368.5" r="2" style="fill:#000" class="net_33 width_1"/>
  <line x1="186" x2="549" y1="368.5" y2="368.5" class="net_33 width_1" style="stroke-width: 1"/>
  <line x1="176" x2="186" y1="266.5" y2="266.5" class="net_33 width_1" style="stroke-width: 1"/>
  <line x1="186" x2="186" y1="266.5" y2="481.5" class="net_33 width_1" style="stroke-width: 1"/>
  <circle cx="186" cy="481.5" r="2" style="fill:#000" class="net_33 width_1"/>
  <line x1="186" x2="549" y1="481.5" y2="481.5" class="net_33 width_1" style="stroke-width: 1"/>
  <line x1="176" x2="186" y1="266.5" y2="266.5" class="net_33 width_1" style="stroke-width: 1"/>
  <line x1="186" x2="186" y1="266.5" y2="522.5" class="net_33 width_1" style="stroke-width: 1"/>
  <circle cx="186" cy="522.5" r="2" style="fill:#000" class="net_33 width_1"/>
  <line x1="186" x2="219.33333333333334" y1="522.5" y2="522.5" class="net_33 width_1" style="stroke-width: 1"/>
  <line x1="176" x2="606.1666666666666" y1="266.5" y2="266.5" class="net_33 width_1" style="stroke-width: 1"/>
  <line x1="176" x2="186" y1="266.5" y2="266.5" class="net_33 width_1" style="stroke-width: 1"/>
  <line x1="186" x2="186" y1="266.5" y2="575.5" class="net_33 width_1" style="stroke-width: 1"/>
  <line x1="186" x2="579" y1="575.5" y2="575.5" class="net_33 width_1" style="stroke-width: 1"/>
  <line x1="579" x2="579" y1="575.5" y2="511.5" class="net_33 width_1" style="stroke-width: 1"/>
  <line x1="579" x2="606.1666666666666" y1="511.5" y2="511.5" class="net_33 width_1" style="stroke-width: 1"/>
  <line x1="176" x2="186" y1="266.5" y2="266.5" class="net_33 width_1" style="stroke-width: 1"/>
  <line x1="186" x2="186" y1="266.5" y2="542.5" class="net_33 width_1" style="stroke-width: 1"/>
  <line x1="186" x2="256" y1="542.5" y2="542.5" class="net_33 width_1" style="stroke-width: 1"/>
  <line x1="256" x2="256" y1="542.5" y2="532.5" class="net_33 width_1" style="stroke-width: 1"/>
  <circle cx="186" cy="542.5" r="2" style="fill:#000" class="net_33 width_1"/>
  <line x1="256" x2="284.3333333333333" y1="532.5" y2="532.5" class="net_33 width_1" style="stroke-width: 1"/>
  <line x1="446" x2="456" y1="440.5" y2="440.5" class="net_34 width_1" style="stroke-width: 1"/>
  <line x1="456" x2="456" y1="440.5" y2="388.5" class="net_34 width_1" style="stroke-width: 1"/>
  <circle cx="456" cy="440.5" r="2" style="fill:#000" class="net_34 width_1"/>
  <line x1="456" x2="549" y1="388.5" y2="388.5" class="net_34 width_1" style="stroke-width: 1"/>
  <line x1="446" x2="456" y1="440.5" y2="440.5" class="net_34 width_1" style="stroke-width: 1"/>
  <line x1="456" x2="456" y1="440.5" y2="545" class="net_34 width_1" style="stroke-width: 1"/>
  <line x1="456" x2="483" y1="545" y2="545" class="net_34 width_1" style="stroke-width: 1"/>
  <line x1="173" x2="196" y1="34.5" y2="34.5" class="net_15 width_1" style="stroke-width: 1"/>
  <line x1="196" x2="196" y1="34.5" y2="317.5" class="net_15 width_1" style="stroke-width: 1"/>
  <line x1="196" x2="559" y1="317.5" y2="317.5" class="net_15 width_1" style="stroke-width: 1"/>
  <circle cx="196" cy="34.5" r="2" style="fill:#000" class="net_15 width_1"/>
  <circle cx="196" cy="317.5" r="2" style="fill:#000" class="net_15 width_1"/>
  <line x1="559" x2="559" y1="317.5" y2="363.5" class="net_15 width_1" style="stroke-width: 1"/>
  <line x1="173" x2="196" y1="34.5" y2="34.5" class="net_15 width_1" style="stroke-width: 1"/>
  <line x1="196" x2="196" y1="34.5" y2="419.5" class="net_15 width_1" style="stroke-width: 1"/>
  <line x1="196" x2="559" y1="419.5" y2="419.5" class="net_15 width_1" style="stroke-width: 1"/>
  <circle cx="196" cy="419.5" r="2" style="fill:#000" class="net_15 width_1"/>
  <line x1="559" x2="559" y1="419.5" y2="476.5" class="net_15 width_1" style="stroke-width: 1"/>
  <line x1="173" x2="617" y1="34.5" y2="34.5" class="net_15 width_1" style="stroke-width: 1"/>
  <line x1="617" x2="617" y1="34.5" y2="120" class="net_15 width_1" style="stroke-width: 1"/>
  <line x1="173" x2="196" y1="34.5" y2="34.5" class="net_15 width_1" style="stroke-width: 1"/>
  <line x1="196" x2="196" y1="34.5" y2="430.5" class="net_15 width_1" style="stroke-width: 1"/>
  <line x1="196" x2="229.33333333333334" y1="430.5" y2="430.5" class="net_15 width_1" style="stroke-width: 1"/>
  <line x1="229.33333333333334" x2="229.33333333333334" y1="430.5" y2="497.5" class="net_15 width_1" style="stroke-width: 1"/>
  <line x1="514" x2="524" y1="537.5" y2="537.5" class="net_17 width_1" style="stroke-width: 1"/>
  <line x1="524" x2="524" y1="537.5" y2="501.5" class="net_17 width_1" style="stroke-width: 1"/>
  <line x1="524" x2="549" y1="501.5" y2="501.5" class="net_17 width_1" style="stroke-width: 1"/>
  <line x1="509.6666666666667" x2="604" y1="125" y2="125" class="net_10,11,12 width_3" style="stroke-width: 2"/>
  <line x1="514" x2="579" y1="182.5" y2="182.5" class="net_36,37,38 width_3" style="stroke-width: 2"/>
  <line x1="579" x2="579" y1="182.5" y2="145" class="net_36,37,38 width_3" style="stroke-width: 2"/>
  <line x1="579" x2="604" y1="145" y2="145" class="net_36,37,38 width_3" style="stroke-width: 2"/>
  <line x1="514" x2="524" y1="182.5" y2="182.5" class="net_36,37,38 width_3" style="stroke-width: 2"/>
  <line x1="524" x2="524" y1="182.5" y2="199.5" class="net_36,37,38 width_3" style="stroke-width: 2"/>
  <line x1="524" x2="706.5" y1="199.5" y2="199.5" class="net_36,37,38 width_3" style="stroke-width: 2"/>
  <line x1="706.5" x2="706.5" y1="199.5" y2="155" class="net_36,37,38 width_3" style="stroke-width: 2"/>
  <circle cx="524" cy="182.5" r="3" style="fill:#000" class="net_36,37,38 width_3"/>
  <line x1="706.5" x2="731.5" y1="155" y2="155" class="net_36,37,38 width_3" style="stroke-width: 2"/>
  <line x1="176" x2="219.33333333333334" y1="502.5" y2="502.5" class="net_14 width_1" style="stroke-width: 1"/>
  <line x1="569" x2="579" y1="378.5" y2="378.5" class="net_16 width_1" style="stroke-width: 1"/>
  <line x1="579" x2="579" y1="378.5" y2="246.5" class="net_16 width_1" style="stroke-width: 1"/>
  <line x1="579" x2="606.1666666666666" y1="246.5" y2="246.5" class="net_16 width_1" style="stroke-width: 1"/>
  <line x1="246" x2="256" y1="348.5" y2="348.5" class="net_3 width_1" style="stroke-width: 1"/>
  <line x1="256" x2="256" y1="348.5" y2="226.5" class="net_3 width_1" style="stroke-width: 1"/>
  <line x1="256" x2="616.1666666666666" y1="226.5" y2="226.5" class="net_3 width_1" style="stroke-width: 1"/>
  <circle cx="256" cy="348.5" r="2" style="fill:#000" class="net_3 width_1"/>
  <circle cx="256" cy="226.5" r="2" style="fill:#000" class="net_3 width_1"/>
  <line x1="616.1666666666666" x2="616.1666666666666" y1="226.5" y2="241.5" class="net_3 width_1" style="stroke-width: 1"/>
  <line x1="246" x2="256" y1="348.5" y2="348.5" class="net_3 width_1" style="stroke-width: 1"/>
  <line x1="256" x2="256" y1="348.5" y2="408.5" class="net_3 width_1" style="stroke-width: 1"/>
  <line x1="256" x2="616.1666666666666" y1="408.5" y2="408.5" class="net_3 width_1" style="stroke-width: 1"/>
  <circle cx="256" cy="408.5" r="2" style="fill:#000" class="net_3 width_1"/>
  <line x1="616.1666666666666" x2="616.1666666666666" y1="408.5" y2="486.5" class="net_3 width_1" style="stroke-width: 1"/>
  <line x1="246" x2="256" y1="348.5" y2="348.5" class="net_3 width_1" style="stroke-width: 1"/>
  <line x1="256" x2="256" y1="348.5" y2="65.5" class="net_3 width_1" style="stroke-width: 1"/>
  <line x1="256" x2="744.5" y1="65.5" y2="65.5" class="net_3 width_1" style="stroke-width: 1"/>
  <line x1="744.5" x2="744.5" y1="65.5" y2="130" class="net_3 width_1" style="stroke-width: 1"/>
  <line x1="246" x2="256" y1="348.5" y2="348.5" class="net_3 width_1" style="stroke-width: 1"/>
  <line x1="256" x2="256" y1="348.5" y2="492.5" class="net_3 width_1" style="stroke-width: 1"/>
  <line x1="256" x2="294.3333333333333" y1="492.5" y2="492.5" class="net_3 width_1" style="stroke-width: 1"/>
  <line x1="294.3333333333333" x2="294.3333333333333" y1="492.5" y2="507.5" class="net_3 width_1" style="stroke-width: 1"/>
  <line x1="569" x2="606.1666666666666" y1="491.5" y2="491.5" class="net_18 width_1" style="stroke-width: 1"/>
  <line x1="629.5" x2="731.5" y1="135" y2="135" class="net_19,20,21 width_3" style="stroke-width: 2"/>
  <line x1="239.33333333333334" x2="284.3333333333333" y1="512.5" y2="512.5" class="net_22 width_1" style="stroke-width: 1"/>
  <line x1="311" x2="331" y1="297.5" y2="297.5" class="net_2 width_1" style="stroke-width: 1"/>
  <line x1="331" x2="331" y1="297.5" y2="215.5" class="net_2 width_1" style="stroke-width: 1"/>
  <line x1="331" x2="680.5" y1="215.5" y2="215.5" class="net_2 width_1" style="stroke-width: 1"/>
  <circle cx="331" cy="297.5" r="2" style="fill:#000" class="net_2 width_1"/>
  <circle cx="331" cy="215.5" r="2" style="fill:#000" class="net_2 width_1"/>
  <line x1="680.5" x2="680.5" y1="215.5" y2="236.5" class="net_2 width_1" style="stroke-width: 1"/>
  <line x1="311" x2="331" y1="297.5" y2="297.5" class="net_2 width_1" style="stroke-width: 1"/>
  <line x1="331" x2="331" y1="297.5" y2="460.5" class="net_2 width_1" style="stroke-width: 1"/>
  <line x1="331" x2="680.5" y1="460.5" y2="460.5" class="net_2 width_1" style="stroke-width: 1"/>
  <line x1="680.5" x2="680.5" y1="460.5" y2="481.5" class="net_2 width_1" style="stroke-width: 1"/>
  <line x1="311" x2="331" y1="297.5" y2="297.5" class="net_2 width_1" style="stroke-width: 1"/>
  <line x1="331" x2="331" y1="297.5" y2="87.5" class="net_2 width_1" style="stroke-width: 1"/>
  <line x1="331" x2="362" y1="87.5" y2="87.5" class="net_2 width_1" style="stroke-width: 1"/>
  <line x1="362" x2="362" y1="87.5" y2="97.5" class="net_2 width_1" style="stroke-width: 1"/>
  <line x1="311" x2="331" y1="297.5" y2="297.5" class="net_2 width_1" style="stroke-width: 1"/>
  <line x1="331" x2="331" y1="297.5" y2="328.5" class="net_2 width_1" style="stroke-width: 1"/>
  <line x1="331" x2="362" y1="328.5" y2="328.5" class="net_2 width_1" style="stroke-width: 1"/>
  <circle cx="331" cy="328.5" r="2" style="fill:#000" class="net_2 width_1"/>
  <line x1="362" x2="362" y1="328.5" y2="502.5" class="net_2 width_1" style="stroke-width: 1"/>
  <line x1="626.1666666666666" x2="664.5" y1="256.5" y2="256.5" class="net_23 width_1" style="stroke-width: 1"/>
  <line x1="626.1666666666666" x2="664.5" y1="501.5" y2="501.5" class="net_24 width_1" style="stroke-width: 1"/>
  <line x1="757" x2="789.5" y1="145" y2="145" class="net_25,26,27 width_3" style="stroke-width: 2"/>
  <line x1="789.5" x2="789.5" y1="145" y2="49.5" class="net_25,26,27 width_3" style="stroke-width: 2"/>
  <line x1="789.5" x2="321" y1="49.5" y2="49.5" class="net_25,26,27 width_3" style="stroke-width: 2"/>
  <line x1="321" x2="321" y1="49.5" y2="117.5" class="net_25,26,27 width_3" style="stroke-width: 2"/>
  <line x1="321" x2="346" y1="117.5" y2="117.5" class="net_25,26,27 width_3" style="stroke-width: 2"/>
  <line x1="304.3333333333333" x2="346" y1="522.5" y2="522.5" class="net_28 width_1" style="stroke-width: 1"/>
  <line x1="43" x2="150" y1="42" y2="42" class="net_46,47,48 width_3" style="stroke-width: 2"/>
  <line x1="446" x2="483" y1="530" y2="530" class="net_29 width_1" style="stroke-width: 1"/>
  <line x1="696.5" x2="731.5" y1="256.5" y2="256.5" class="net_5 width_1" style="stroke-width: 1"/>
  <line x1="696.5" x2="732.5" y1="501.5" y2="501.5" class="net_6 width_1" style="stroke-width: 1"/>
  <rect x="230" y="72.5" width="16" height="9" class="net_7,8,9 width_3 busLabel_3" style="fill: white; stroke: none"/>
  <text x="229" y="80.5" class="net_7,8,9 width_3 busLabel_3">/3/</text>
  <rect x="230" y="72.5" width="16" height="9" class="net_7,8,9 width_3 busLabel_3" style="fill: white; stroke: none"/>
  <text x="229" y="80.5" class="net_7,8,9 width_3 busLabel_3">/3/</text>
  <rect x="428.5" y="177.5" width="16" height="9" class="net_30,31,32 width_3 busLabel_3" style="fill: white; stroke: none"/>
  <text x="427.5" y="185.5" class="net_30,31,32 width_3 busLabel_3">/3/</text>
  <rect x="558" y="120" width="16" height="9" class="net_10,11,12 width_3 busLabel_3" style="fill: white; stroke: none"/>
  <text x="557" y="128" class="net_10,11,12 width_3 busLabel_3">/3/</text>
  <rect x="615.75" y="194.5" width="16" height="9" class="net_36,37,38 width_3 busLabel_3" style="fill: white; stroke: none"/>
  <text x="614.75" y="202.5" class="net_36,37,38 width_3 busLabel_3">/3/</text>
  <rect x="615.75" y="194.5" width="16" height="9" class="net_36,37,38 width_3 busLabel_3" style="fill: white; stroke: none"/>
  <text x="614.75" y="202.5" class="net_36,37,38 width_3 busLabel_3">/3/</text>
  <rect x="679.5" y="130" width="16" height="9" class="net_19,20,21 width_3 busLabel_3" style="fill: white; stroke: none"/>
  <text x="678.5" y="138" class="net_19,20,21 width_3 busLabel_3">/3/</text>
  <rect x="558" y="44.5" width="16" height="9" class="net_25,26,27 width_3 busLabel_3" style="fill: white; stroke: none"/>
  <text x="557" y="52.5" class="net_25,26,27 width_3 busLabel_3">/3/</text>
  <rect x="92" y="37" width="16" height="9" class="net_46,47,48 width_3 busLabel_3" style="fill: white; stroke: none"/>
  <text x="91" y="45" class="net_46,47,48 width_3 busLabel_3">/3/</text>
</svg>
